#!OML:ASF X:\für Bonn\!DataBase\2005_08_12_Daniel\c3d\Daniel.ASF
:FULLY-SPECIFIED
:DEGREES
96
root 3.89527 16.7186 -0.241118 117.366 -102.512 -144.467
lowerback 23.1658 1.78106 -6.14436
upperback 8.4728 -0.480102 -8.92442
thorax -3.63628 -0.610082 -6.09699
lowerneck 12.5707 5.69779 -6.68549
upperneck 8.51901 5.95082 12.9596
head -0.156325 2.52265 4.77954
rclavicle 5.98839e-015 -1.59028e-014
rhumerus -50.915 10.6356 -102.313
rradius 37.5009
rwrist 10.7948
rhand -21.3879 17.1553
rfingers 7.12502
rthumb 4.99985 -12.7658
lclavicle 5.98839e-015 -1.59028e-014
lhumerus 5.17929 -22.2312 65.6509
lradius 117.111
lwrist 17.3643
lhand -16.713 -23.2227
lfingers 7.12502
lthumb 9.51231 6.54256
rfemur 5.38975 -9.06285 13.2206
rtibia 48.7822
rfoot -26.4246 -11.7286
rtoes -4.2609
lfemur -45.6973 -3.20727 -26.2133
ltibia 95.1747
lfoot 16.3539 10.6273
ltoes -16.6602
97
root 3.91161 16.7088 -0.23147 120.28 -102.697 -146.763
lowerback 22.4239 1.3216 -6.27653
upperback 8.24834 -0.986555 -8.83603
thorax -3.54057 -0.844596 -5.77161
lowerneck 12.8292 5.84846 -6.48198
upperneck 8.54755 6.16293 12.6076
head -0.183011 2.62385 4.622
rclavicle -1.78285e-014 -3.97569e-014
rhumerus -52.3756 10.631 -102.133
rradius 37.9103
rwrist 10.4881
rhand -21.4766 17.1905
rfingers 7.12502
rthumb 4.91412 -12.7325
lclavicle -1.78285e-014 -3.97569e-014
lhumerus 6.12294 -21.904 65.0658
lradius 117.16
lwrist 17.6848
lhand -16.7571 -23.0765
lfingers 7.12502
lthumb 9.46975 6.69078
rfemur 4.56549 -9.41348 13.4664
rtibia 49.0642
rfoot -26.6355 -11.8153
rtoes -4.20662
lfemur -43.6225 -3.74844 -25.8637
ltibia 95.0558
lfoot 16.868 9.81643
ltoes -17.4574
98
root 3.92811 16.698 -0.222137 123.044 -102.903 -148.92
lowerback 21.6974 0.869905 -6.42351
upperback 8.02325 -1.49003 -8.74428
thorax -3.44341 -1.07868 -5.44544
lowerneck 13.0815 6.00598 -6.29027
upperneck 8.57032 6.38313 12.2893
head -0.211983 2.72889 4.47631
rclavicle 1.98039e-014 -1.90833e-014
rhumerus -53.7324 10.5898 -101.847
rradius 38.2955
rwrist 10.3592
rhand -21.5104 17.2746
rfingers 7.12502
rthumb 4.88151 -12.6492
lclavicle 1.98039e-014 -1.90833e-014
lhumerus 6.89584 -21.5277 64.5364
lradius 117.271
lwrist 17.8832
lhand -16.8386 -22.9593
lfingers 7.12502
lthumb 9.39109 6.8115
rfemur 3.73354 -9.71917 13.7268
rtibia 49.3638
rfoot -26.8643 -11.9186
rtoes -4.0979
lfemur -41.5531 -4.31487 -25.488
ltibia 94.8527
lfoot 17.1726 8.82411
ltoes -18.3486
99
root 3.94466 16.6842 -0.21138 125.581 -103.128 -150.887
lowerback 20.9915 0.429881 -6.59577
upperback 7.82352 -1.98638 -8.64376
thorax -3.31823 -1.31168 -5.10751
lowerneck 13.3003 6.16042 -6.10508
upperneck 8.59911 6.60019 11.9711
head -0.232768 2.83399 4.33269
rclavicle 2.75068e-014 6.04305e-014
rhumerus -54.9601 10.5198 -101.407
rradius 38.6381
rwrist 10.4983
rhand -21.4705 17.4948
rfingers 7.12502
rthumb 4.92008 -12.4281
lclavicle 2.75068e-014 6.04305e-014
lhumerus 7.5323 -21.1184 64.0779
lradius 117.44
lwrist 17.9746
lhand -17.0089 -22.8379
lfingers 7.12502
lthumb 9.22673 6.9402
rfemur 2.9377 -10.0002 13.9598
rtibia 49.6599
rfoot -27.0942 -12.0142
rtoes -4.00172
lfemur -39.4389 -4.89828 -25.1186
ltibia 94.5565
lfoot 17.3451 7.70587
ltoes -18.4872
100
root 3.96241 16.6716 -0.20005 128.031 -103.329 -152.767
lowerback 20.2739 -0.00232226 -6.75319
upperback 7.63688 -2.46581 -8.51885
thorax -3.16245 -1.53733 -4.7658
lowerneck 13.4848 6.31189 -5.94517
upperneck 8.63207 6.81204 11.6596
head -0.246758 2.93757 4.19634
rclavicle 1.39149e-015 -3.02153e-014
rhumerus -56.0346 10.4441 -100.842
rradius 38.9081
rwrist 10.832
rhand -21.3978 17.7597
rfingers 7.12502
rthumb 4.99025 -12.1615
lclavicle 1.39149e-015 -3.02153e-014
lhumerus 8.11649 -20.6884 63.706
lradius 117.547
lwrist 17.9897
lhand -17.2092 -22.8007
lfingers 7.12502
lthumb 9.03344 6.98585
rfemur 2.14722 -10.2855 14.2169
rtibia 49.9171
rfoot -27.2766 -12.1151
rtoes -3.94745
lfemur -37.358 -5.45056 -24.7071
ltibia 94.1823
lfoot 17.3561 6.43608
ltoes -18.3544
101
root 3.97906 16.6623 -0.187887 130.31 -103.503 -154.506
lowerback 19.5603 -0.415755 -6.89024
upperback 7.46253 -2.91819 -8.39234
thorax -2.98655 -1.75107 -4.45103
lowerneck 13.6793 6.45801 -5.7593
upperneck 8.65542 7.02057 11.345
head -0.262648 3.03993 4.05478
rclavicle -2.5842e-015 7.95139e-015
rhumerus -57.0092 10.2915 -100.145
rradius 39.1343
rwrist 11.4119
rhand -21.2539 18.0627
rfingers 7.12502
rthumb 5.12919 -11.8552
lclavicle -2.5842e-015 7.95139e-015
lhumerus 8.64217 -20.2865 63.3721
lradius 117.614
lwrist 17.9273
lhand -17.4818 -22.8304
lfingers 7.12502
lthumb 8.77038 6.9674
rfemur 1.42907 -10.513 14.4985
rtibia 50.1043
rfoot -27.453 -12.2032
rtoes -3.92494
lfemur -35.2711 -5.97998 -24.2833
ltibia 93.7275
lfoot 17.1377 5.05005
ltoes -18.441
102
root 3.99323 16.6612 -0.175329 132.46 -103.656 -156.118
lowerback 18.7872 -0.815874 -7.02997
upperback 7.32505 -3.34384 -8.25213
thorax -2.73014 -1.95496 -4.13829
lowerneck 13.6707 6.59302 -5.63743
upperneck 8.73164 7.23834 10.8019
head -0.223906 3.15226 4.23241
rclavicle 2.61402e-014 5.725e-014
rhumerus -57.7988 10.1245 -99.3174
rradius 39.2538
rwrist 12.1631
rhand -21.1218 18.3796
rfingers 7.12502
rthumb 5.25674 -11.5352
lclavicle 2.61402e-014 5.725e-014
lhumerus 9.1451 -19.8627 63.1084
lradius 117.635
lwrist 17.7659
lhand -17.7255 -22.8648
lfingers 7.12502
lthumb 8.53523 6.94265
rfemur 0.760913 -10.707 14.7907
rtibia 50.2108
rfoot -27.5948 -12.3249
rtoes -3.85051
lfemur -33.1877 -6.48524 -23.8389
ltibia 93.1543
lfoot 16.7775 3.6637
ltoes -18.4805
